[Header]
FileType HTR
DataType HTRS
FileVersion 1
NumSegments 22
NumFrames 4
DataFrameRate 24
EulerRotationOrder ZYX
CalibrationUnits mm
RotationUnits Degrees
GlobalAxisofGravity Y
BoneLengthAxis Y
ScaleFactor 1.0
[SegmentNames&Hierarchy]
reference	GLOBAL
Hips	reference
Spine	Hips
Spine1	Spine
Neck	Spine1
Head	Neck
LeftShoulder	Spine1
LeftArm	LeftShoulder
LeftForeArm	LeftArm
LeftHand	LeftForeArm
RightShoulder	Spine1
RightArm	RightShoulder
RightForeArm	RightArm
RightHand	RightForeArm
LeftUpLeg	Hips
LeftLeg	LeftUpLeg
LeftFoot	LeftLeg
LeftToeBase	LeftFoot
RightUpLeg	Hips
RightLeg	RightUpLeg
RightFoot	RightLeg
RightToeBase	RightFoot
[BasePosition]
reference	0	0	0	0	0	0	1
Hips	0	0	0	0	0	0	1
Spine	0	0	0	0	-0	90	1
Spine1	0	0	0	0	0	0	1
Neck	0	0	0	-7.352327771	-7.352327771	90	1
Head	0	0	0	0	-0	90	1
LeftShoulder	0	0	0	0	0	0	1
LeftArm	0	0	0	0	0	0	1
LeftForeArm	0	0	0	0	0	0	1
LeftHand	0	0	0	0	0	0	1
RightShoulder	0	0	0	0	-0	180	1
RightArm	0	0	0	0	-0	180	1
RightForeArm	0	0	0	0	-0	180	1
RightHand	0	0	0	0	-0	180	1
LeftUpLeg	0	0	0	0	-0	-90	1
LeftLeg	0	0	0	0	-0	-90	1
LeftFoot	0	0	0	66.57146043	-66.57146043	-90	1
LeftToeBase	0	0	0	0	-90	0	1
RightUpLeg	0	0	0	0	-0	-90	1
RightLeg	0	0	0	0	-0	-90	1
RightFoot	0	0	0	66.57146043	-66.57146043	-90	1
RightToeBase	0	0	0	0	-90	0	1
[reference]
46	0	0	0	0	-0	0	1.0
47	0	0	0	0	-0	0	1.0
48	0	0	0	0	-0	0	1.0
49	0	0	0	0	-0	0	1.0
[Hips]
46	2.124143124	8.101364136	0.6457955837	2.117804527	-133.300705	-0.8871173859	1.0
47	1.855819464	8.158167839	0.373742938	0.9472424984	-133.2371674	-0.03096290864	1.0
48	1.574041605	8.22791481	0.0847055763	0.4744966924	-132.9868469	0.312073648	1.0
49	1.293179989	8.262263298	-0.2195599973	-0.6245574951	-132.7075958	1.089553833	1.0
[Spine]
46	0	0.7457100153	0	-2.379057646	-7.186209679	-92.15260315	1.0
47	0	0.7457100153	0	-2.680251122	-7.003315926	-91.45504761	1.0
48	0	0.7457100153	0	-3.167400837	-6.386899471	-90.69352722	1.0
49	0	0.7457100153	0	-3.604719162	-5.544692039	-90.0202179	1.0
[Spine1]
46	0	2.140589952	0	9.050853729	-2.357573271	0.03936123103	1.0
47	0	2.140589952	0	9.435931206	-2.323150635	0.1859911978	1.0
48	0	2.140589952	0	8.771374702	-2.097305775	-0.3243722022	1.0
49	0	2.140589952	0	8.0670681	-1.827986956	-0.285536468	1.0
[Neck]
46	0	2.32246995	0	-25.02220726	13.48189545	-88.59642029	1.0
47	0	2.32246995	0	-25.2173481	13.57234192	-88.90193939	1.0
48	0	2.32246995	0	-24.25957108	13.4889679	-89.00043488	1.0
49	0	2.32246995	0	-22.6479969	13.30699539	-89.14826965	1.0
[Head]
46	0	1.409579992	0.1818799973	-7.391766548	6.345218658	-92.42417908	1.0
47	0	1.409579992	0.1818799973	-6.737794399	6.539115906	-92.86303711	1.0
48	0	1.409579992	0.1818799973	-5.801324368	6.521133423	-93.03797913	1.0
49	0	1.409579992	0.1818799973	-4.790702343	6.41615057	-93.30715942	1.0
[LeftShoulder]
46	0.3668199778	1.946700096	-0.02662999928	-17.50159073	-17.9709816	-0.5544837713	1.0
47	0.3668199778	1.946700096	-0.02662999928	-18.22955704	-18.03305626	-0.7378621697	1.0
48	0.3668199778	1.946700096	-0.02662999928	-18.06822205	-17.57453156	-1.217163444	1.0
49	0.3668199778	1.946700096	-0.02662999928	-17.08401871	-16.56997871	-1.766961217	1.0
[LeftArm]
46	1.140689969	0	0	57.96175766	-6.624352455	-68.5970993	1.0
47	1.140689969	0	0	58.22739792	-4.092220783	-71.25886536	1.0
48	1.140689969	0	0	57.81622314	-0.917378664	-73.97001648	1.0
49	1.140689969	0	0	55.58844376	1.822601557	-76.23239136	1.0
[LeftForeArm]
46	2.749800205	0	0	-6.569838047	-46.005867	2.552524805	1.0
47	2.749800205	0	0	-6.176498413	-42.54278946	2.138210058	1.0
48	2.749800205	0	0	-5.945539474	-37.60087967	1.078131795	1.0
49	2.749800205	0	0	-5.167868137	-32.5617981	0.2098335922	1.0
[LeftHand]
46	2.295179844	0	0	-4.792747974	-13.77701187	-5.73315239	1.0
47	2.295179844	0	0	-4.564529419	-12.92114639	-6.880459309	1.0
48	2.295179844	0	0	-5.05467844	-11.61017323	-5.150872231	1.0
49	2.295179844	0	0	-4.671062946	-9.787289619	-5.083176136	1.0
[RightShoulder]
46	-0.3601199985	1.946700096	-0.02662999928	-2.770724058	0.4554662406	172.5351105	1.0
47	-0.3601199985	1.946700096	-0.02662999928	-3.015161276	1.104359388	172.7261963	1.0
48	-0.3601199985	1.946700096	-0.02662999928	-3.096333742	1.392771721	172.7858582	1.0
49	-0.3601199985	1.946700096	-0.02662999928	-2.890306711	1.869511485	172.8728333	1.0
[RightArm]
46	-1.140689969	0	0	26.55223465	-6.975653172	-105.1746216	1.0
47	-1.140689969	0	0	29.36983299	-6.808877945	-104.2810059	1.0
48	-1.140689969	0	0	32.22230911	-7.001125813	-102.9315948	1.0
49	-1.140689969	0	0	34.46162415	-7.058229446	-102.028595	1.0
[RightForeArm]
46	-2.749800205	0	0	9.121763229	5.503214836	188.3387909	1.0
47	-2.749800205	0	0	8.618701935	3.227614164	188.2945862	1.0
48	-2.749800205	0	0	7.843358994	2.731923103	188.1805115	1.0
49	-2.749800205	0	0	6.703002453	3.855113029	187.7482758	1.0
[RightHand]
46	-2.295179844	0	0	8.561208725	4.374072552	175.8350677	1.0
47	-2.295179844	0	0	8.286466599	2.938176394	176.147583	1.0
48	-2.295179844	0	0	7.601336002	2.134039164	177.6144104	1.0
49	-2.295179844	0	0	6.444914341	3.082630873	180.1113434	1.0
[LeftUpLeg]
46	0.9094099998	0	0	12.85375404	4.744150639	86.69059753	1.0
47	0.9094099998	0	0	12.38645935	5.36678648	87.60096741	1.0
48	0.9094099998	0	0	9.241319656	6.8818326	88.94586182	1.0
49	0.9094099998	0	0	5.193293571	8.504797935	91.66368866	1.0
[LeftLeg]
46	0	-4.498080254	0	17.75383377	-16.3596096	81.02120209	1.0
47	0	-4.498080254	0	25.33244133	-13.47480106	80.86317444	1.0
48	0	-4.498080254	0	36.45871353	-8.347971916	81.34685516	1.0
49	0	-4.498080254	0	49.21247482	-5.353421688	79.34211731	1.0
[LeftFoot]
46	0	-3.729400158	0	-92.64128113	113.5381012	-24.46042442	1.0
47	0	-3.729400158	0	-90.11726379	107.2425385	-27.71281815	1.0
48	0	-3.729400158	0	-94.15174866	100.967392	-41.37184143	1.0
49	0	-3.729400158	0	-78.10774231	97.54831696	-36.89952087	1.0
[LeftToeBase]
46	0	-0.5911099911	1.364109993	0	0	0	1.0
47	0	-0.5911099911	1.364109993	0	0	0	1.0
48	0	-0.5911099911	1.364109993	0	0	0	1.0
49	0	-0.5911099911	1.364109993	0	0	0	1.0
[RightUpLeg]
46	-0.9094099998	0	0	-23.18334198	-4.888683796	96.73951721	1.0
47	-0.9094099998	0	0	-22.60876846	-4.670804977	98.16009521	1.0
48	-0.9094099998	0	0	-20.59824753	-5.134937286	98.34693146	1.0
49	-0.9094099998	0	0	-18.29424095	-4.255647182	97.90109253	1.0
[RightLeg]
46	0	-4.498080254	0	13.90787601	-4.96958828	84.97883606	1.0
47	0	-4.498080254	0	19.62375641	0.2232185006	83.86434937	1.0
48	0	-4.498080254	0	21.78438759	-2.542072296	82.55010986	1.0
49	0	-4.498080254	0	24.47989082	1.102464199	85.91222382	1.0
[RightFoot]
46	0	-3.729400158	0	69.19087982	66.9098587	109.7197266	1.0
47	0	-3.729400158	0	56.27696228	67.54541779	98.30859375	1.0
48	0	-3.729400158	0	62.29069519	67.00362396	107.0128479	1.0
49	0	-3.729400158	0	44.08958435	66.01131439	91.116745	1.0
[RightToeBase]
46	0	-0.5911099911	1.364109993	0	0	0	1.0
47	0	-0.5911099911	1.364109993	0	0	0	1.0
48	0	-0.5911099911	1.364109993	0	0	0	1.0
49	0	-0.5911099911	1.364109993	0	0	0	1.0
[EndOfFile]
